# xmcd
#
# Track frame offsets:
#	150
#	18218
#	33705
#	53905
#	79490
#	96211
#	114159
#	133383
#	145232
#	157942
#	173746
#	193242
#
# Disc length: 2797 seconds
#
# Revision: 1
# Processed by: cddbd v1.5.2PL0 Copyright (c) Steve Scherf et al.
# Submitted via: audiograbber 1.83.01
#
DISCID=a30aeb0c
DTITLE=Alison Moyet - The Turn (Disc1)
DYEAR=2015
DGENRE=Best Pop
TTITLE0=One More Time
TTITLE1=Anytime At All
TTITLE2=The Man In The Wings
TTITLE3=Cant' Say It Like I Mean It
TTITLE4=It's Not The Thing Henry
TTITLE5=Fire
TTITLE6=The Sharpest Corner (Hollow)
TTITLE7=World Without End
TTITLE8=Home
TTITLE9=Smaller
TTITLE10=A Guy Like You
TTITLE11=Senses
EXTD=
EXTT0=
EXTT1=
EXTT2=
EXTT3=
EXTT4=
EXTT5=
EXTT6=
EXTT7=
EXTT8=
EXTT9=
EXTT10=
EXTT11=
PLAYORDER=
